<?xml version="1.0" encoding="utf-8"?>
<!-- Generator: Adobe Illustrator 16.0.0, SVG Export Plug-In . SVG Version: 6.00 Build 0)  -->
<!DOCTYPE svg PUBLIC "-//W3C//DTD SVG 1.1//EN" "http://www.w3.org/Graphics/SVG/1.1/DTD/svg11.dtd">
<svg version="1.1" id="Layer_1" xmlns="http://www.w3.org/2000/svg" xmlns:xlink="http://www.w3.org/1999/xlink" x="0px" y="0px"
	 width="234px" height="40px" viewBox="0 0 234 40" enable-background="new 0 0 234 40" xml:space="preserve">
<g>
	<path fill="none" d="M174.082,14.496c-0.752-0.987-1.898-1.485-3.432-1.495c-2.183,0-3.599,0.892-4.246,2.673
		c-0.648,1.783-0.971,4.194-0.971,7.236c0.104,3.191,0.443,5.669,1.016,7.433c0.569,1.764,1.914,2.66,4.027,2.688
		c1.566,0,2.731-0.476,3.498-1.424c0.769-0.947,1.252-2.121,1.457-3.516c0.207-1.397,0.309-3.088,0.309-5.068
		c0-2.03-0.089-3.713-0.267-5.048C175.299,16.642,174.835,15.481,174.082,14.496z"/>
	<path fill="none" d="M149.406,14.009c-0.943-0.862-2.311-1.293-4.103-1.293h-3.989v20.488h4.462c2.353,0,3.944-0.859,4.773-2.574
		c0.829-1.716,1.244-4.288,1.244-7.719c-0.02-2.155-0.186-3.961-0.502-5.421C150.979,16.033,150.351,14.871,149.406,14.009z"/>
	<path fill="none" d="M113.267,17.632c0-1.505-0.388-2.701-1.159-3.587c-0.772-0.887-1.792-1.33-3.06-1.33h-5.561v9.136h3.231
		c0.084,0,0.3,0.008,0.642,0.027c0.344,0.021,0.634,0.029,0.873,0.029C111.503,21.908,113.181,20.484,113.267,17.632z"/>
	<path fill="none" d="M64.016,12.715h-5.619v9.307h5.447c1.391,0,2.442-0.356,3.152-1.072c0.71-0.714,1.065-2.017,1.065-3.904
		c-0.028-1.381-0.413-2.449-1.151-3.202C66.172,13.092,65.208,12.715,64.016,12.715z"/>
	<path fill="none" d="M199.442,14.496c-0.752-0.987-1.896-1.485-3.431-1.495c-2.183,0-3.597,0.892-4.245,2.673
		c-0.649,1.783-0.974,4.194-0.974,7.236c0.105,3.191,0.443,5.669,1.017,7.433c0.571,1.764,1.915,2.66,4.031,2.688
		c1.563,0,2.729-0.476,3.494-1.424c0.769-0.947,1.253-2.121,1.46-3.516c0.205-1.397,0.308-3.088,0.308-5.068
		c0-2.03-0.091-3.713-0.265-5.048C200.661,16.642,200.194,15.481,199.442,14.496z"/>
	<path fill="none" d="M226.463,17.632c0-1.505-0.387-2.701-1.156-3.587c-0.773-0.887-1.793-1.33-3.063-1.33h-5.56v9.136h3.229
		c0.087,0,0.302,0.008,0.646,0.027c0.343,0.021,0.633,0.029,0.87,0.029C224.697,21.908,226.377,20.484,226.463,17.632z"/>
	<path fill="#F5911F" d="M122.862,37.019l9.479-3.748V12.592l-9.479-3.249V37.019z M130.77,22.451c0.308,0,0.561,0.25,0.561,0.562
		c0,0.31-0.253,0.562-0.561,0.562c-0.313,0-0.563-0.252-0.563-0.562C130.207,22.701,130.456,22.451,130.77,22.451z"/>
	<path fill="#FEFEFE" d="M130.77,23.574c0.308,0,0.561-0.252,0.561-0.562c0-0.312-0.253-0.562-0.561-0.562
		c-0.313,0-0.563,0.25-0.563,0.562C130.207,23.322,130.456,23.574,130.77,23.574z"/>
	<path fill="#656565" d="M22.228,22.13c-1.306-1.101-2.833-1.876-4.582-2.324c-1.749-0.448-3.483-0.936-5.204-1.465
		c-1.721-0.529-2.58-1.313-2.58-2.352c0.105-1.344,0.609-2.206,1.515-2.587c0.905-0.382,2.153-0.573,3.746-0.573
		c1.638,0,3.054,0.143,4.246,0.422c1.191,0.282,2.548,0.766,4.074,1.451l-1.115-4.389c-0.524-0.218-1.578-0.488-3.159-0.808
		c-1.583-0.319-3.77-0.478-6.563-0.478c-1.677,0.076-3.19,0.364-4.539,0.864c-1.349,0.501-2.437,1.265-3.267,2.295
		c-0.829,1.03-1.272,2.335-1.33,3.917c0,2.489,0.61,4.227,1.83,5.212c1.22,0.986,3.043,1.739,5.469,2.26
		c2.425,0.519,4.177,1.063,5.253,1.629c1.077,0.565,1.616,1.751,1.616,3.553c0,1.516-0.398,2.647-1.193,3.395
		c-0.797,0.75-2.347,1.123-4.654,1.123c-1.429-0.039-2.733-0.21-3.911-0.514c-1.176-0.307-2.186-0.638-3.023-1.001
		c-0.838-0.361-1.263-0.542-1.272-0.542l1.058,4.159c0,0.049,0.41,0.197,1.229,0.448c0.82,0.253,1.861,0.484,3.124,0.696
		c1.263,0.207,2.604,0.313,4.024,0.313c0.857,0,1.52-0.018,1.987-0.056c1.944-0.136,3.596-0.518,4.954-1.151
		c1.357-0.634,2.414-1.637,3.166-3.01c0.754-1.373,1.13-3.184,1.13-5.434C24.21,24.914,23.534,23.23,22.228,22.13z"/>
	<path fill="#656565" d="M43.244,27.239c0,0.058,0.009,0.255,0.028,0.587c0.018,0.334,0.028,0.625,0.028,0.873
		c0,3.125-1.639,4.688-4.918,4.688c-3.555,0-5.332-1.601-5.332-4.805c0-0.196,0.009-0.431,0.028-0.698
		c0.02-0.268,0.028-0.425,0.028-0.473V9.313h-6.318v18.158c0,1.715,0.227,3.25,0.68,4.608c0.452,1.36,1.479,2.52,3.08,3.488
		c1.602,0.967,3.979,1.451,7.133,1.451c7.176,0,10.766-2.829,10.766-8.491v-1.288V9.313h-5.203V27.239z"/>
	<path fill="#656565" d="M71.435,11.043c-1.601-1.154-3.836-1.73-6.705-1.73H52.192v27.292h6.205V25.367h5.619
		c1.954,0,3.643-0.194,5.068-0.586c1.425-0.391,2.588-1.188,3.489-2.395c0.9-1.205,1.351-2.928,1.351-5.169
		C73.866,14.255,73.037,12.195,71.435,11.043z M66.997,20.95c-0.71,0.716-1.761,1.072-3.152,1.072h-5.447v-9.307h5.619
		c1.192,0,2.156,0.377,2.895,1.129c0.738,0.752,1.123,1.82,1.151,3.202C68.062,18.934,67.707,20.236,66.997,20.95z"/>
	<polygon fill="#656565" points="82.344,24.065 92.65,24.065 92.65,20.679 82.344,20.679 82.344,12.715 94.709,12.715 94.709,9.313 
		76.139,9.313 76.139,36.605 94.881,36.605 94.881,33.203 82.344,33.203 	"/>
	<path fill="#656565" d="M111.279,24.524c0.258,0,0.92-0.131,1.988-0.388c1.4-0.322,2.678-1.018,3.831-2.086
		c1.154-1.067,1.773-2.678,1.859-4.833c0-5.271-3.045-7.905-9.135-7.905H97.283v27.292h6.205V22.053l8.263,14.553h7.206
		l-7.791-12.125C111.165,24.509,111.203,24.524,111.279,24.524z M108.233,21.908c-0.238,0-0.529-0.008-0.873-0.029
		c-0.342-0.02-0.558-0.027-0.642-0.027h-3.231v-9.136h5.561c1.268,0,2.287,0.443,3.06,1.33c0.771,0.886,1.159,2.082,1.159,3.587
		C113.181,20.484,111.503,21.908,108.233,21.908z"/>
	<path fill="#F5911F" d="M147.176,9.313h-12.067v27.292h11.955c2.324,0,4.208-0.506,5.651-1.516c1.445-1.011,2.492-2.524,3.146-4.54
		c0.654-2.017,0.979-4.563,0.979-7.64c0-4.28-0.733-7.617-2.203-10.009C153.17,10.509,150.685,9.313,147.176,9.313z M150.55,30.629
		c-0.829,1.715-2.421,2.574-4.773,2.574h-4.462V12.715h3.989c1.792,0,3.159,0.431,4.103,1.293c0.944,0.862,1.573,2.024,1.886,3.48
		c0.316,1.46,0.482,3.266,0.502,5.421C151.794,26.341,151.379,28.913,150.55,30.629z"/>
	<path fill="#F5911F" d="M177.428,10.734c-1.746-1.024-4.042-1.535-6.891-1.535c-3.881,0.027-6.766,1.178-8.657,3.444
		c-1.892,2.269-2.853,5.69-2.88,10.267c0,3.2,0.402,5.831,1.214,7.891c0.811,2.059,2.063,3.579,3.76,4.561
		c1.696,0.981,3.865,1.472,6.503,1.472c2.748,0,4.989-0.5,6.729-1.502c1.738-0.999,3.022-2.533,3.853-4.595
		c0.828-2.064,1.241-4.672,1.241-7.826c0-3.069-0.376-5.611-1.126-7.621C180.42,13.278,179.171,11.76,177.428,10.734z
		 M175.432,28.092c-0.205,1.395-0.688,2.568-1.457,3.516c-0.767,0.948-1.932,1.424-3.498,1.424
		c-2.113-0.028-3.458-0.925-4.027-2.688c-0.572-1.764-0.912-4.241-1.016-7.433c0-3.042,0.322-5.454,0.971-7.236
		c0.647-1.781,2.063-2.673,4.246-2.673c1.533,0.01,2.68,0.508,3.432,1.495c0.753,0.986,1.217,2.146,1.392,3.48
		c0.178,1.335,0.267,3.018,0.267,5.048C175.74,25.004,175.639,26.694,175.432,28.092z"/>
	<path fill="#F5911F" d="M202.79,10.734c-1.746-1.024-4.043-1.535-6.893-1.535c-3.879,0.027-6.764,1.178-8.657,3.444
		c-1.891,2.269-2.851,5.69-2.879,10.267c0,3.2,0.405,5.831,1.213,7.891c0.812,2.059,2.065,3.579,3.762,4.561
		s3.863,1.472,6.505,1.472c2.745,0,4.986-0.5,6.727-1.502c1.738-0.999,3.021-2.533,3.852-4.595c0.829-2.064,1.244-4.672,1.244-7.826
		c0-3.069-0.377-5.611-1.128-7.621C205.781,13.278,204.531,11.76,202.79,10.734z M200.795,28.092
		c-0.207,1.395-0.691,2.568-1.46,3.516c-0.766,0.948-1.931,1.424-3.494,1.424c-2.116-0.028-3.46-0.925-4.031-2.688
		c-0.573-1.764-0.911-4.241-1.017-7.433c0-3.042,0.324-5.454,0.974-7.236c0.648-1.781,2.063-2.673,4.245-2.673
		c1.534,0.01,2.679,0.508,3.431,1.495c0.752,0.986,1.219,2.146,1.396,3.48c0.174,1.335,0.265,3.018,0.265,5.048
		C201.103,25.004,201,26.694,200.795,28.092z"/>
	<path fill="#F5911F" d="M224.475,24.524c0.259,0,0.921-0.131,1.988-0.388c1.4-0.322,2.677-1.018,3.831-2.086
		c1.152-1.067,1.772-2.678,1.858-4.833c0-5.271-3.045-7.905-9.136-7.905H210.48v27.292h6.204V22.053l8.263,14.553h7.205
		l-7.791-12.125C224.361,24.509,224.399,24.524,224.475,24.524z M220.56,21.879c-0.344-0.02-0.559-0.027-0.646-0.027h-3.229v-9.136
		h5.56c1.27,0,2.289,0.443,3.063,1.33c0.77,0.886,1.156,2.082,1.156,3.587c-0.086,2.852-1.766,4.276-5.033,4.276
		C221.192,21.908,220.902,21.9,220.56,21.879z"/>
</g>
</svg>
